<svg width="36" height="36" viewBox="0 0 36 36" fill="none" xmlns="http://www.w3.org/2000/svg">
<g clip-path="url(#clip0_1394_7267)">
<path d="M30.1916 30.1988C36.9318 23.4585 36.9318 12.5304 30.1916 5.79013C23.4513 -0.950128 12.5232 -0.950129 5.78293 5.79013C-0.957328 12.5304 -0.957328 23.4585 5.78293 30.1988C12.5232 36.939 23.4513 36.939 30.1916 30.1988Z" fill="url(#paint0_linear_1394_7267)"/>
<path d="M17.9942 1.11355C27.3032 1.11355 34.8751 8.68546 34.8751 17.9945C34.8751 27.3035 27.3032 34.8754 17.9942 34.8754C8.68516 34.8754 1.11324 27.3146 1.11324 17.9945C1.11324 8.67433 8.68516 1.11355 17.9942 1.11355ZM17.9942 0.367493C8.26202 0.367493 0.367188 8.26233 0.367188 17.9945C0.367188 27.7266 8.26202 35.6214 17.9942 35.6214C27.7263 35.6214 35.6211 27.7266 35.6211 17.9945C35.6211 8.26233 27.7374 0.367493 17.9942 0.367493Z" fill="#A3713B"/>
<g opacity="0.41">
<path d="M17.783 33.5391C9.39822 33.5391 2.5835 26.7244 2.5835 18.3396C2.5835 9.95486 9.40935 3.14014 17.783 3.14014C26.1566 3.14014 32.9825 9.95486 32.9825 18.3396C32.9825 26.7244 26.1678 33.5391 17.783 33.5391ZM17.783 3.48533C9.59865 3.48533 2.92869 10.1442 2.92869 18.3396C2.92869 26.5351 9.58752 33.194 17.783 33.194C25.9785 33.194 32.6262 26.5351 32.6262 18.3396C32.6262 10.1442 25.9785 3.48533 17.783 3.48533Z" fill="#EBE191"/>
<path d="M18.6405 4.98858C18.6405 4.98858 17.037 4.98858 16.9702 3.24036C16.9702 3.00652 18.5737 3.26263 18.6405 4.98858Z" fill="#EBE191"/>
<path d="M18.8407 1.53668C18.8407 1.53668 17.2484 1.31398 16.9589 3.05106C16.9144 3.2849 18.5512 3.24036 18.8407 1.53668Z" fill="#EBE191"/>
<path d="M17.1592 31.468C17.1592 31.468 18.7626 31.468 18.8295 33.2162C18.8295 33.4501 17.226 33.194 17.1592 31.468Z" fill="#EBE191"/>
<path d="M16.959 34.9199C16.959 34.9199 18.5513 35.1426 18.8408 33.4055C18.8854 33.1717 17.2485 33.2162 16.959 34.9199Z" fill="#EBE191"/>
<path d="M16.9033 5.01085C16.9033 5.01085 15.311 5.23355 15.0215 3.49647C14.9881 3.26263 16.6138 3.30717 16.9033 5.01085Z" fill="#EBE191"/>
<path d="M16.6473 1.55896C16.6473 1.55896 15.0439 1.54783 14.9771 3.30718C14.9771 3.54102 16.5805 3.28491 16.6473 1.55896Z" fill="#EBE191"/>
<path d="M18.8965 31.4569C18.8965 31.4569 20.4888 31.2342 20.7783 32.9713C20.8117 33.2051 19.186 33.1606 18.8965 31.4569Z" fill="#EBE191"/>
<path d="M19.1416 34.8977C19.1416 34.8977 20.7451 34.9088 20.8119 33.1495C20.8119 32.9156 19.2084 33.1717 19.1416 34.8977Z" fill="#EBE191"/>
<path d="M15.1885 5.24469C15.1885 5.24469 13.6407 5.66782 13.1285 3.98641C13.0617 3.76371 14.6763 3.58555 15.1885 5.24469Z" fill="#EBE191"/>
<path d="M14.4869 1.85962C14.4869 1.85962 12.8946 2.06005 13.0616 3.80827C13.0839 4.04211 14.6539 3.58557 14.4869 1.85962Z" fill="#EBE191"/>
<path d="M20.6113 31.2119C20.6113 31.2119 22.1591 30.7888 22.6713 32.4702C22.7381 32.6929 21.1235 32.8711 20.6113 31.2119Z" fill="#EBE191"/>
<path d="M21.3127 34.597C21.3127 34.597 22.9051 34.3966 22.738 32.6483C22.7158 32.4145 21.1457 32.871 21.3127 34.597Z" fill="#EBE191"/>
<path d="M13.5066 5.71239C13.5066 5.71239 12.0257 6.33595 11.3019 4.73249C11.2017 4.52092 12.794 4.13119 13.5066 5.71239Z" fill="#EBE191"/>
<path d="M12.3821 2.44977C12.3821 2.44977 10.8343 2.85063 11.2241 4.56545C11.2797 4.79929 12.7719 4.13118 12.3821 2.44977Z" fill="#EBE191"/>
<path d="M22.2817 30.7442C22.2817 30.7442 23.7627 30.1207 24.4865 31.7241C24.5867 31.9357 22.9944 32.3254 22.2817 30.7442Z" fill="#EBE191"/>
<path d="M23.4174 34.0069C23.4174 34.0069 24.9652 33.606 24.5754 31.8912C24.5198 31.6573 23.0277 32.3254 23.4174 34.0069Z" fill="#EBE191"/>
<path d="M11.9149 6.39166C11.9149 6.39166 10.5341 7.20453 9.59875 5.71241C9.47626 5.51198 11.0018 4.92182 11.9149 6.39166Z" fill="#EBE191"/>
<path d="M10.3671 3.30719C10.3671 3.30719 8.88607 3.90849 9.49851 5.55649C9.57646 5.7792 10.9684 4.92179 10.3671 3.30719Z" fill="#EBE191"/>
<path d="M23.874 30.065C23.874 30.065 25.2548 29.2521 26.1901 30.7442C26.3126 30.9447 24.7871 31.5348 23.874 30.065Z" fill="#EBE191"/>
<path d="M25.433 33.1606C25.433 33.1606 26.914 32.5593 26.3016 30.9113C26.2236 30.6886 24.8317 31.546 25.433 33.1606Z" fill="#EBE191"/>
<path d="M10.4224 7.27127C10.4224 7.27127 9.15302 8.25117 8.0395 6.90381C7.89474 6.72565 9.32004 5.94619 10.4224 7.27127Z" fill="#EBE191"/>
<path d="M8.48495 4.40955C8.48495 4.40955 7.09305 5.20014 7.91706 6.75907C8.02841 6.97063 9.29782 5.9462 8.48495 4.40955Z" fill="#EBE191"/>
<path d="M25.377 29.1853C25.377 29.1853 26.6464 28.2054 27.7599 29.5528C27.9046 29.7309 26.4793 30.5104 25.377 29.1853Z" fill="#EBE191"/>
<path d="M27.3147 32.047C27.3147 32.047 28.7066 31.2564 27.8826 29.6975C27.7712 29.4859 26.5018 30.5104 27.3147 32.047Z" fill="#EBE191"/>
<path d="M9.0533 8.34028C9.0533 8.34028 7.92865 9.47606 6.63697 8.2846C6.46995 8.12871 7.7839 7.15995 9.0533 8.34028Z" fill="#EBE191"/>
<path d="M6.7593 5.7569C6.7593 5.7569 5.47875 6.72566 6.50319 8.15096C6.63681 8.34026 7.76146 7.15993 6.7593 5.7569Z" fill="#EBE191"/>
<path d="M26.7354 28.1163C26.7354 28.1163 27.86 26.9805 29.1517 28.172C29.3187 28.3279 28.0048 29.2966 26.7354 28.1163Z" fill="#EBE191"/>
<path d="M29.0403 30.6997C29.0403 30.6997 30.3209 29.7309 29.2964 28.3056C29.1628 28.1163 28.0382 29.2966 29.0403 30.6997Z" fill="#EBE191"/>
<path d="M7.83937 9.58746C7.83937 9.58746 6.87061 10.868 5.44531 9.84356C5.25601 9.70994 6.43634 8.58529 7.83937 9.58746Z" fill="#EBE191"/>
<path d="M5.22264 7.31586C5.22264 7.31586 4.07572 8.44051 5.27832 9.73219C5.43421 9.89922 6.40297 8.58527 5.22264 7.31586Z" fill="#EBE191"/>
<path d="M27.9492 26.8692C27.9492 26.8692 28.918 25.5886 30.3433 26.6131C30.5326 26.7467 29.3522 27.8713 27.9492 26.8692Z" fill="#EBE191"/>
<path d="M30.5659 29.1407C30.5659 29.1407 31.7128 28.0161 30.5102 26.7244C30.3543 26.5573 29.3855 27.8713 30.5659 29.1407Z" fill="#EBE191"/>
<path d="M6.80391 10.9681C6.80391 10.9681 6.01331 12.36 4.45439 11.536C4.24282 11.4247 5.26726 10.1553 6.80391 10.9681Z" fill="#EBE191"/>
<path d="M3.90856 9.06403C3.90856 9.06403 2.92866 10.3334 4.27602 11.447C4.45418 11.5917 5.23364 10.1664 3.90856 9.06403Z" fill="#EBE191"/>
<path d="M28.9961 25.4884C28.9961 25.4884 29.7867 24.0965 31.3456 24.9205C31.5572 25.0319 30.5327 26.3013 28.9961 25.4884Z" fill="#EBE191"/>
<path d="M31.8803 27.3925C31.8803 27.3925 32.8602 26.1231 31.5129 25.0096C31.3347 24.8648 30.5553 26.2901 31.8803 27.3925Z" fill="#EBE191"/>
<path d="M5.94621 12.4825C5.94621 12.4825 5.34492 13.9635 3.69691 13.3511C3.47421 13.2731 4.33161 11.8812 5.94621 12.4825Z" fill="#EBE191"/>
<path d="M2.83966 10.9681C2.83966 10.9681 2.02679 12.3489 3.51891 13.2843C3.71934 13.4067 4.3095 11.8924 2.83966 10.9681Z" fill="#EBE191"/>
<path d="M29.8535 23.974C29.8535 23.974 30.4548 22.4931 32.1028 23.1055C32.3255 23.1835 31.4681 24.5753 29.8535 23.974Z" fill="#EBE191"/>
<path d="M32.9601 25.4885C32.9601 25.4885 33.7729 24.1077 32.2808 23.1723C32.0804 23.0499 31.4902 24.5642 32.9601 25.4885Z" fill="#EBE191"/>
<path d="M5.30007 14.086C5.30007 14.086 4.89921 15.6338 3.18439 15.2441C2.95055 15.1884 3.61866 13.6963 5.30007 14.086Z" fill="#EBE191"/>
<path d="M2.01531 12.9948C2.01531 12.9948 1.39174 14.4757 2.98407 15.1995C3.19564 15.2997 3.58537 13.7074 2.01531 12.9948Z" fill="#EBE191"/>
<path d="M30.499 22.3706C30.499 22.3706 30.8999 20.8228 32.6147 21.2125C32.8485 21.2682 32.1804 22.7603 30.499 22.3706Z" fill="#EBE191"/>
<path d="M33.7838 23.4618C33.7838 23.4618 34.4074 21.9809 32.815 21.2571C32.6035 21.1569 32.2137 22.7492 33.7838 23.4618Z" fill="#EBE191"/>
<path d="M4.86586 15.7674C4.86586 15.7674 4.66543 17.3598 2.9172 17.1927C2.68337 17.1705 3.13991 15.6004 4.86586 15.7674Z" fill="#EBE191"/>
<path d="M1.46979 15.1216C1.46979 15.1216 1.04666 16.6694 2.72807 17.1816C2.95077 17.2484 3.12893 15.6338 1.46979 15.1216Z" fill="#EBE191"/>
<path d="M30.9336 20.6892C30.9336 20.6892 31.134 19.0968 32.8822 19.2639C33.1161 19.2861 32.6595 20.8562 30.9336 20.6892Z" fill="#EBE191"/>
<path d="M34.33 21.3461C34.33 21.3461 34.7531 19.7983 33.0717 19.2861C32.849 19.2193 32.6708 20.8339 34.33 21.3461Z" fill="#EBE191"/>
<path d="M4.65441 17.4934C4.65441 17.4934 4.65441 19.0969 2.90619 19.1637C2.67235 19.1637 2.92846 17.5602 4.65441 17.4934Z" fill="#EBE191"/>
<path d="M1.20263 17.293C1.20263 17.293 0.979932 18.8853 2.71702 19.1748C2.95086 19.2194 2.90632 17.5825 1.20263 17.293Z" fill="#EBE191"/>
<path d="M31.1338 18.9631C31.1338 18.9631 31.1338 17.3597 32.882 17.2928C33.1159 17.2928 32.8597 18.8963 31.1338 18.9631Z" fill="#EBE191"/>
<path d="M34.597 19.1748C34.597 19.1748 34.8197 17.5825 33.0826 17.2929C32.8488 17.2484 32.8934 18.8853 34.597 19.1748Z" fill="#EBE191"/>
<path d="M4.67711 19.2305C4.67711 19.2305 4.89981 20.8228 3.16273 21.1123C2.92889 21.1457 2.97343 19.52 4.67711 19.2305Z" fill="#EBE191"/>
<path d="M1.2251 19.4755C1.2251 19.4755 1.21396 21.0789 2.97332 21.1457C3.20716 21.1457 2.95105 19.5423 1.2251 19.4755Z" fill="#EBE191"/>
<path d="M31.123 17.2373C31.123 17.2373 30.9003 15.6449 32.6374 15.3554C32.8713 15.322 32.8267 16.9478 31.123 17.2373Z" fill="#EBE191"/>
<path d="M34.5748 16.9812C34.5748 16.9812 34.586 15.3777 32.8266 15.3109C32.5928 15.3109 32.8489 16.9144 34.5748 16.9812Z" fill="#EBE191"/>
<path d="M4.92175 20.9453C4.92175 20.9453 5.34489 22.493 3.66348 23.0053C3.44077 23.0721 3.26261 21.4463 4.92175 20.9453Z" fill="#EBE191"/>
<path d="M1.52539 21.6356C1.52539 21.6356 1.72582 23.2279 3.47405 23.0609C3.70788 23.0386 3.25134 21.4686 1.52539 21.6356Z" fill="#EBE191"/>
<path d="M30.878 15.5113C30.878 15.5113 30.4549 13.9636 32.1363 13.4513C32.359 13.3845 32.5371 15.0103 30.878 15.5113Z" fill="#EBE191"/>
<path d="M34.2633 14.8209C34.2633 14.8209 34.0629 13.2286 32.3147 13.3956C32.0808 13.4179 32.5374 14.988 34.2633 14.8209Z" fill="#EBE191"/>
<path d="M5.37816 22.6155C5.37816 22.6155 6.00173 24.0965 4.39826 24.8203C4.18669 24.9205 3.79696 23.3282 5.37816 22.6155Z" fill="#EBE191"/>
<path d="M2.11572 23.7513C2.11572 23.7513 2.51659 25.2991 4.2314 24.9094C4.46524 24.8537 3.79713 23.3616 2.11572 23.7513Z" fill="#EBE191"/>
<path d="M30.4104 13.8411C30.4104 13.8411 29.7868 12.3601 31.3903 11.6363C31.6018 11.5361 31.9916 13.1284 30.4104 13.8411Z" fill="#EBE191"/>
<path d="M33.6843 12.7052C33.6843 12.7052 33.2835 11.1575 31.5687 11.5472C31.3348 11.6029 32.0029 13.095 33.6843 12.7052Z" fill="#EBE191"/>
<path d="M6.05774 24.2079C6.05774 24.2079 6.8706 25.5886 5.37849 26.524C5.17806 26.6465 4.58789 25.121 6.05774 24.2079Z" fill="#EBE191"/>
<path d="M2.97314 25.7668C2.97314 25.7668 3.57444 27.2478 5.22245 26.6354C5.44515 26.5574 4.58774 25.1655 2.97314 25.7668Z" fill="#EBE191"/>
<path d="M29.7308 12.2487C29.7308 12.2487 28.9179 10.868 30.41 9.93261C30.6105 9.81012 31.2006 11.3356 29.7308 12.2487Z" fill="#EBE191"/>
<path d="M32.8264 10.7009C32.8264 10.7009 32.2251 9.21994 30.5771 9.83237C30.3544 9.91032 31.2007 11.3022 32.8264 10.7009Z" fill="#EBE191"/>
<path d="M6.94821 25.7C6.94821 25.7 7.92811 26.9694 6.58075 28.0829C6.40259 28.2277 5.62313 26.8024 6.94821 25.7Z" fill="#EBE191"/>
<path d="M4.08643 27.6487C4.08643 27.6487 4.87702 29.0406 6.43595 28.2166C6.64751 28.1052 5.62308 26.8358 4.08643 27.6487Z" fill="#EBE191"/>
<path d="M28.8514 10.7566C28.8514 10.7566 27.8715 9.48718 29.2189 8.37367C29.3971 8.22891 30.1765 9.65421 28.8514 10.7566Z" fill="#EBE191"/>
<path d="M31.7131 8.80795C31.7131 8.80795 30.9225 7.41605 29.3636 8.24005C29.152 8.35141 30.1764 9.62081 31.7131 8.80795Z" fill="#EBE191"/>
<path d="M8.01752 27.0696C8.01752 27.0696 9.15331 28.1943 7.96185 29.486C7.80595 29.653 6.83719 28.3391 8.01752 27.0696Z" fill="#EBE191"/>
<path d="M5.43408 29.3635C5.43408 29.3635 6.40284 30.6441 7.82814 29.6196C8.01744 29.486 6.83711 28.3614 5.43408 29.3635Z" fill="#EBE191"/>
<path d="M27.7822 9.38698C27.7822 9.38698 26.6464 8.26233 27.8378 6.97065C27.9937 6.80362 28.9625 8.11757 27.7822 9.38698Z" fill="#EBE191"/>
<path d="M30.3657 7.09316C30.3657 7.09316 29.397 5.81261 27.9717 6.83705C27.7824 6.97067 28.9627 8.09532 30.3657 7.09316Z" fill="#EBE191"/>
<path d="M9.25372 28.2833C9.25372 28.2833 10.5343 29.2521 9.50982 30.6774C9.3762 30.8667 8.25155 29.6864 9.25372 28.2833Z" fill="#EBE191"/>
<path d="M6.99316 30.9001C6.99316 30.9001 8.11782 32.047 9.4095 30.8444C9.57652 30.6885 8.26257 29.7198 6.99316 30.9001Z" fill="#EBE191"/>
<path d="M26.5464 8.1733C26.5464 8.1733 25.2659 7.20454 26.2903 5.77923C26.4239 5.58994 27.5486 6.77026 26.5464 8.1733Z" fill="#EBE191"/>
<path d="M28.8067 5.5565C28.8067 5.5565 27.6821 4.40958 26.3904 5.61218C26.2234 5.76807 27.5373 6.73683 28.8067 5.5565Z" fill="#EBE191"/>
<path d="M10.634 29.3301C10.634 29.3301 12.0259 30.1207 11.2019 31.6796C11.0906 31.8912 9.82114 30.8667 10.634 29.3301Z" fill="#EBE191"/>
<path d="M8.74121 32.2141C8.74121 32.2141 10.0106 33.194 11.1241 31.8466C11.2689 31.6685 9.84359 30.889 8.74121 32.2141Z" fill="#EBE191"/>
<path d="M25.1544 7.12654C25.1544 7.12654 23.7625 6.33595 24.5865 4.77702C24.6978 4.56545 25.9672 5.58989 25.1544 7.12654Z" fill="#EBE191"/>
<path d="M27.0587 4.24254C27.0587 4.24254 25.7892 3.26265 24.6757 4.61C24.531 4.78817 25.9563 5.56763 27.0587 4.24254Z" fill="#EBE191"/>
<path d="M12.1483 30.1763C12.1483 30.1763 13.6293 30.7776 13.0169 32.4256C12.9389 32.6483 11.547 31.7909 12.1483 30.1763Z" fill="#EBE191"/>
<path d="M10.645 33.2942C10.645 33.2942 12.0258 34.1071 12.9611 32.6149C13.0836 32.4145 11.5692 31.8243 10.645 33.2942Z" fill="#EBE191"/>
<path d="M23.6512 6.28026C23.6512 6.28026 22.1703 5.67896 22.7827 4.03096C22.8606 3.80825 24.2525 4.66566 23.6512 6.28026Z" fill="#EBE191"/>
<path d="M25.1547 3.16241C25.1547 3.16241 23.7739 2.34955 22.8385 3.84166C22.7161 4.04209 24.2304 4.63226 25.1547 3.16241Z" fill="#EBE191"/>
<path d="M13.7631 30.8221C13.7631 30.8221 15.3109 31.223 14.9211 32.9378C14.8655 33.1717 13.3734 32.5036 13.7631 30.8221Z" fill="#EBE191"/>
<path d="M12.6719 34.107C12.6719 34.107 14.1529 34.7306 14.8766 33.1383C14.9769 32.9267 13.3845 32.537 12.6719 34.107Z" fill="#EBE191"/>
<path d="M22.0364 5.63442C22.0364 5.63442 20.4886 5.23356 20.8784 3.51874C20.934 3.2849 22.4262 3.95301 22.0364 5.63442Z" fill="#EBE191"/>
<path d="M23.1277 2.34954C23.1277 2.34954 21.6468 1.72597 20.923 3.3183C20.8228 3.52987 22.4151 3.9196 23.1277 2.34954Z" fill="#EBE191"/>
<path d="M15.4333 31.2565C15.4333 31.2565 17.0257 31.4569 16.8586 33.2051C16.8364 33.439 15.2663 32.9824 15.4333 31.2565Z" fill="#EBE191"/>
<path d="M14.7876 34.6527C14.7876 34.6527 16.3354 35.0758 16.8476 33.3944C16.9144 33.1717 15.2998 32.9936 14.7876 34.6527Z" fill="#EBE191"/>
<path d="M20.3551 5.20015C20.3551 5.20015 18.7627 4.99972 18.9298 3.25149C18.952 3.01766 20.5221 3.4742 20.3551 5.20015Z" fill="#EBE191"/>
<path d="M21.0122 1.8039C21.0122 1.8039 19.4644 1.38076 18.9522 3.06217C18.8854 3.28488 20.5 3.46304 21.0122 1.8039Z" fill="#EBE191"/>
</g>
<g style="mix-blend-mode:multiply" opacity="0.7">
<path d="M17.783 33.3721C9.39822 33.3721 2.5835 26.5574 2.5835 18.1726C2.5835 9.78781 9.40935 2.97308 17.783 2.97308C26.1566 2.97308 32.9825 9.78781 32.9825 18.1726C32.9825 26.5574 26.1678 33.3721 17.783 33.3721ZM17.783 3.31827C9.59865 3.31827 2.92869 9.9771 2.92869 18.1726C2.92869 26.3681 9.58752 33.0269 17.783 33.0269C25.9785 33.0269 32.6262 26.3681 32.6262 18.1726C32.6262 9.9771 25.9785 3.31827 17.783 3.31827Z" fill="#A3713B"/>
<path d="M18.6405 4.82153C18.6405 4.82153 17.037 4.82153 16.9702 3.07331C16.9702 2.83947 18.5737 3.09558 18.6405 4.82153Z" fill="#A3713B"/>
<path d="M18.8407 1.36963C18.8407 1.36963 17.2484 1.14692 16.9589 2.88401C16.9144 3.11785 18.5512 3.07331 18.8407 1.36963Z" fill="#A3713B"/>
<path d="M17.1592 31.301C17.1592 31.301 18.7626 31.301 18.8295 33.0492C18.8295 33.283 17.226 33.0269 17.1592 31.301Z" fill="#A3713B"/>
<path d="M16.959 34.7529C16.959 34.7529 18.5513 34.9756 18.8408 33.2385C18.8854 33.0046 17.2485 33.0492 16.959 34.7529Z" fill="#A3713B"/>
<path d="M16.9033 4.83263C16.9033 4.83263 15.311 5.05533 15.0215 3.31824C14.9881 3.08441 16.6138 3.12895 16.9033 4.83263Z" fill="#A3713B"/>
<path d="M16.6473 1.38074C16.6473 1.38074 15.0439 1.3696 14.9771 3.12896C14.9771 3.3628 16.5805 3.10669 16.6473 1.38074Z" fill="#A3713B"/>
<path d="M18.8965 31.2787C18.8965 31.2787 20.4888 31.056 20.7783 32.7931C20.8117 33.0269 19.186 32.9824 18.8965 31.2787Z" fill="#A3713B"/>
<path d="M19.1416 34.7306C19.1416 34.7306 20.7451 34.7417 20.8119 32.9824C20.8119 32.7485 19.2084 33.0046 19.1416 34.7306Z" fill="#A3713B"/>
<path d="M15.1885 5.07763C15.1885 5.07763 13.6407 5.50077 13.1285 3.81936C13.0617 3.59666 14.6763 3.41849 15.1885 5.07763Z" fill="#A3713B"/>
<path d="M14.4869 1.69257C14.4869 1.69257 12.8946 1.893 13.0616 3.64122C13.0839 3.87506 14.6539 3.41852 14.4869 1.69257Z" fill="#A3713B"/>
<path d="M20.6113 31.0337C20.6113 31.0337 22.1591 30.6106 22.6713 32.292C22.7381 32.5147 21.1235 32.6928 20.6113 31.0337Z" fill="#A3713B"/>
<path d="M21.3127 34.4299C21.3127 34.4299 22.9051 34.2295 22.738 32.4813C22.7158 32.2475 21.1457 32.704 21.3127 34.4299Z" fill="#A3713B"/>
<path d="M13.5066 5.54527C13.5066 5.54527 12.0257 6.16884 11.3019 4.56538C11.2017 4.35381 12.794 3.96408 13.5066 5.54527Z" fill="#A3713B"/>
<path d="M12.3821 2.27155C12.3821 2.27155 10.8343 2.67241 11.2241 4.38723C11.2797 4.62107 12.7719 3.95296 12.3821 2.27155Z" fill="#A3713B"/>
<path d="M22.2817 30.5772C22.2817 30.5772 23.7627 29.9536 24.4865 31.5571C24.5867 31.7686 22.9944 32.1584 22.2817 30.5772Z" fill="#A3713B"/>
<path d="M23.4174 33.8398C23.4174 33.8398 24.9652 33.4389 24.5754 31.7241C24.5198 31.4903 23.0277 32.1584 23.4174 33.8398Z" fill="#A3713B"/>
<path d="M11.9149 6.22454C11.9149 6.22454 10.5341 7.03741 9.59875 5.5453C9.47626 5.34487 11.0018 4.7547 11.9149 6.22454Z" fill="#A3713B"/>
<path d="M10.3671 3.12897C10.3671 3.12897 8.88607 3.73027 9.49851 5.37827C9.57646 5.60097 10.9684 4.74357 10.3671 3.12897Z" fill="#A3713B"/>
<path d="M23.874 29.898C23.874 29.898 25.2548 29.0851 26.1901 30.5772C26.3126 30.7776 24.7871 31.3678 23.874 29.898Z" fill="#A3713B"/>
<path d="M25.433 32.9824C25.433 32.9824 26.914 32.3811 26.3016 30.7331C26.2236 30.5104 24.8317 31.3566 25.433 32.9824Z" fill="#A3713B"/>
<path d="M10.4224 7.10422C10.4224 7.10422 9.15302 8.08411 8.0395 6.73676C7.89474 6.55859 9.32004 5.77913 10.4224 7.10422Z" fill="#A3713B"/>
<path d="M8.48495 4.24249C8.48495 4.24249 7.09305 5.03309 7.91706 6.59201C8.02841 6.80358 9.29782 5.77915 8.48495 4.24249Z" fill="#A3713B"/>
<path d="M25.377 29.0071C25.377 29.0071 26.6464 28.0272 27.7599 29.3746C27.9046 29.5528 26.4793 30.3322 25.377 29.0071Z" fill="#A3713B"/>
<path d="M27.3147 31.88C27.3147 31.88 28.7066 31.0894 27.8826 29.5305C27.7712 29.3189 26.5018 30.3434 27.3147 31.88Z" fill="#A3713B"/>
<path d="M9.0533 8.17322C9.0533 8.17322 7.92865 9.30901 6.63697 8.11755C6.46995 7.96165 7.7839 6.99289 9.0533 8.17322Z" fill="#A3713B"/>
<path d="M6.7593 5.58984C6.7593 5.58984 5.47875 6.5586 6.50319 7.98391C6.63681 8.1732 7.76146 6.99287 6.7593 5.58984Z" fill="#A3713B"/>
<path d="M26.7354 27.9382C26.7354 27.9382 27.86 26.8024 29.1517 27.9938C29.3187 28.1497 28.0048 29.1185 26.7354 27.9382Z" fill="#A3713B"/>
<path d="M29.0403 30.5327C29.0403 30.5327 30.3209 29.5639 29.2964 28.1386C29.1628 27.9493 28.0382 29.1296 29.0403 30.5327Z" fill="#A3713B"/>
<path d="M7.83937 9.40923C7.83937 9.40923 6.87061 10.6898 5.44531 9.66534C5.25601 9.53172 6.43634 8.40707 7.83937 9.40923Z" fill="#A3713B"/>
<path d="M5.22264 7.1488C5.22264 7.1488 4.07572 8.27346 5.27832 9.56514C5.43421 9.73216 6.40297 8.41821 5.22264 7.1488Z" fill="#A3713B"/>
<path d="M27.9492 26.7021C27.9492 26.7021 28.918 25.4216 30.3433 26.446C30.5326 26.5796 29.3522 27.7043 27.9492 26.7021Z" fill="#A3713B"/>
<path d="M30.5659 28.9625C30.5659 28.9625 31.7128 27.8379 30.5102 26.5462C30.3543 26.3792 29.3855 27.6931 30.5659 28.9625Z" fill="#A3713B"/>
<path d="M6.80391 10.8011C6.80391 10.8011 6.01331 12.193 4.45439 11.369C4.24282 11.2576 5.26726 9.9882 6.80391 10.8011Z" fill="#A3713B"/>
<path d="M3.90856 8.89697C3.90856 8.89697 2.92866 10.1664 4.27602 11.2799C4.45418 11.4247 5.23364 9.99935 3.90856 8.89697Z" fill="#A3713B"/>
<path d="M28.9961 25.3214C28.9961 25.3214 29.7867 23.9295 31.3456 24.7535C31.5572 24.8648 30.5327 26.1342 28.9961 25.3214Z" fill="#A3713B"/>
<path d="M31.8803 27.2255C31.8803 27.2255 32.8602 25.9561 31.5129 24.8425C31.3347 24.6978 30.5553 26.1231 31.8803 27.2255Z" fill="#A3713B"/>
<path d="M5.94621 12.3155C5.94621 12.3155 5.34492 13.7964 3.69691 13.184C3.47421 13.1061 4.33161 11.7142 5.94621 12.3155Z" fill="#A3713B"/>
<path d="M2.83966 10.8011C2.83966 10.8011 2.02679 12.1818 3.51891 13.1172C3.71934 13.2397 4.3095 11.7253 2.83966 10.8011Z" fill="#A3713B"/>
<path d="M29.8535 23.807C29.8535 23.807 30.4548 22.326 32.1028 22.9385C32.3255 23.0164 31.4681 24.4083 29.8535 23.807Z" fill="#A3713B"/>
<path d="M32.9601 25.3214C32.9601 25.3214 33.7729 23.9406 32.2808 23.0053C32.0804 22.8828 31.4902 24.3972 32.9601 25.3214Z" fill="#A3713B"/>
<path d="M5.30007 13.919C5.30007 13.919 4.89921 15.4668 3.18439 15.077C2.95055 15.0213 3.61866 13.5292 5.30007 13.919Z" fill="#A3713B"/>
<path d="M2.01531 12.8277C2.01531 12.8277 1.39174 14.3087 2.98407 15.0325C3.19564 15.1327 3.58537 13.5403 2.01531 12.8277Z" fill="#A3713B"/>
<path d="M30.499 22.2035C30.499 22.2035 30.8999 20.6557 32.6147 21.0455C32.8485 21.1012 32.1804 22.5933 30.499 22.2035Z" fill="#A3713B"/>
<path d="M33.7838 23.2836C33.7838 23.2836 34.4074 21.8026 32.815 21.0789C32.6035 20.9786 32.2137 22.571 33.7838 23.2836Z" fill="#A3713B"/>
<path d="M4.86586 15.6004C4.86586 15.6004 4.66543 17.1927 2.9172 17.0257C2.68337 17.0034 3.13991 15.4334 4.86586 15.6004Z" fill="#A3713B"/>
<path d="M1.46979 14.9434C1.46979 14.9434 1.04666 16.4912 2.72807 17.0034C2.95077 17.0702 3.12893 15.4556 1.46979 14.9434Z" fill="#A3713B"/>
<path d="M30.9336 20.5221C30.9336 20.5221 31.134 18.9298 32.8822 19.0968C33.1161 19.1191 32.6595 20.6891 30.9336 20.5221Z" fill="#A3713B"/>
<path d="M34.33 21.168C34.33 21.168 34.7531 19.6202 33.0717 19.108C32.849 19.0412 32.6708 20.6558 34.33 21.168Z" fill="#A3713B"/>
<path d="M4.65441 17.3263C4.65441 17.3263 4.65441 18.9298 2.90619 18.9966C2.67235 18.9966 2.92846 17.3931 4.65441 17.3263Z" fill="#A3713B"/>
<path d="M1.20263 17.1147C1.20263 17.1147 0.979932 18.7071 2.71702 18.9966C2.95086 19.0411 2.90632 17.4043 1.20263 17.1147Z" fill="#A3713B"/>
<path d="M31.1338 18.7962C31.1338 18.7962 31.1338 17.1927 32.882 17.1259C33.1159 17.1259 32.8597 18.7294 31.1338 18.7962Z" fill="#A3713B"/>
<path d="M34.597 18.9966C34.597 18.9966 34.8197 17.4043 33.0826 17.1148C32.8488 17.0702 32.8934 18.7071 34.597 18.9966Z" fill="#A3713B"/>
<path d="M4.67711 19.0522C4.67711 19.0522 4.89981 20.6446 3.16273 20.9341C2.92889 20.9675 2.97343 19.3418 4.67711 19.0522Z" fill="#A3713B"/>
<path d="M1.2251 19.3083C1.2251 19.3083 1.21396 20.9118 2.97332 20.9786C3.20716 20.9786 2.95105 19.3752 1.2251 19.3083Z" fill="#A3713B"/>
<path d="M31.123 17.0591C31.123 17.0591 30.9003 15.4668 32.6374 15.1773C32.8713 15.1439 32.8267 16.7696 31.123 17.0591Z" fill="#A3713B"/>
<path d="M34.5748 16.8141C34.5748 16.8141 34.586 15.2107 32.8266 15.1439C32.5928 15.1439 32.8489 16.7473 34.5748 16.8141Z" fill="#A3713B"/>
<path d="M4.92175 20.7782C4.92175 20.7782 5.34489 22.326 3.66348 22.8382C3.44077 22.905 3.26261 21.2793 4.92175 20.7782Z" fill="#A3713B"/>
<path d="M1.52539 21.4686C1.52539 21.4686 1.72582 23.0609 3.47405 22.8939C3.70788 22.8716 3.25134 21.3015 1.52539 21.4686Z" fill="#A3713B"/>
<path d="M30.878 15.3442C30.878 15.3442 30.4549 13.7964 32.1363 13.2842C32.359 13.2174 32.5371 14.8431 30.878 15.3442Z" fill="#A3713B"/>
<path d="M34.2633 14.6427C34.2633 14.6427 34.0629 13.0504 32.3147 13.2174C32.0808 13.2397 32.5374 14.8097 34.2633 14.6427Z" fill="#A3713B"/>
<path d="M5.37816 22.4485C5.37816 22.4485 6.00173 23.9295 4.39826 24.6532C4.18669 24.7535 3.79696 23.1611 5.37816 22.4485Z" fill="#A3713B"/>
<path d="M2.11572 23.5731C2.11572 23.5731 2.51659 25.1209 4.2314 24.7312C4.46524 24.6755 3.79713 23.1834 2.11572 23.5731Z" fill="#A3713B"/>
<path d="M30.4104 13.674C30.4104 13.674 29.7868 12.193 31.3903 11.4692C31.6018 11.369 31.9916 12.9614 30.4104 13.674Z" fill="#A3713B"/>
<path d="M33.6843 12.5382C33.6843 12.5382 33.2835 10.9904 31.5687 11.3801C31.3348 11.4358 32.0029 12.9279 33.6843 12.5382Z" fill="#A3713B"/>
<path d="M6.05774 24.0408C6.05774 24.0408 6.8706 25.4216 5.37849 26.3569C5.17806 26.4794 4.58789 24.9539 6.05774 24.0408Z" fill="#A3713B"/>
<path d="M2.97314 25.5886C2.97314 25.5886 3.57444 27.0696 5.22245 26.4572C5.44515 26.3792 4.58774 24.9873 2.97314 25.5886Z" fill="#A3713B"/>
<path d="M29.7308 12.0817C29.7308 12.0817 28.9179 10.7009 30.41 9.76555C30.6105 9.64307 31.2006 11.1686 29.7308 12.0817Z" fill="#A3713B"/>
<path d="M32.8264 10.5228C32.8264 10.5228 32.2251 9.04178 30.5771 9.65421C30.3544 9.73216 31.2007 11.1241 32.8264 10.5228Z" fill="#A3713B"/>
<path d="M6.94821 25.533C6.94821 25.533 7.92811 26.8024 6.58075 27.9159C6.40259 28.0606 5.62313 26.6353 6.94821 25.533Z" fill="#A3713B"/>
<path d="M4.08643 27.4705C4.08643 27.4705 4.87702 28.8624 6.43595 28.0384C6.64751 27.927 5.62308 26.6576 4.08643 27.4705Z" fill="#A3713B"/>
<path d="M28.8514 10.5784C28.8514 10.5784 27.8715 9.30902 29.2189 8.19551C29.3971 8.05075 30.1765 9.47605 28.8514 10.5784Z" fill="#A3713B"/>
<path d="M31.7131 8.64089C31.7131 8.64089 30.9225 7.249 29.3636 8.073C29.152 8.18435 30.1764 9.45376 31.7131 8.64089Z" fill="#A3713B"/>
<path d="M8.01752 26.9026C8.01752 26.9026 9.15331 28.0272 7.96185 29.3189C7.80595 29.4859 6.83719 28.172 8.01752 26.9026Z" fill="#A3713B"/>
<path d="M5.43408 29.1964C5.43408 29.1964 6.40284 30.4769 7.82814 29.4525C8.01744 29.3189 6.83711 28.1942 5.43408 29.1964Z" fill="#A3713B"/>
<path d="M27.7822 9.21993C27.7822 9.21993 26.6464 8.09528 27.8378 6.8036C27.9937 6.63657 28.9625 7.95052 27.7822 9.21993Z" fill="#A3713B"/>
<path d="M30.3657 6.91494C30.3657 6.91494 29.397 5.63439 27.9717 6.65883C27.7824 6.79245 28.9627 7.9171 30.3657 6.91494Z" fill="#A3713B"/>
<path d="M9.25372 28.1163C9.25372 28.1163 10.5343 29.085 9.50982 30.5103C9.3762 30.6996 8.25155 29.5193 9.25372 28.1163Z" fill="#A3713B"/>
<path d="M6.99316 30.733C6.99316 30.733 8.11782 31.88 9.4095 30.6774C9.57652 30.5215 8.26257 29.5527 6.99316 30.733Z" fill="#A3713B"/>
<path d="M26.5464 8.00624C26.5464 8.00624 25.2659 7.03748 26.2903 5.61218C26.4239 5.42288 27.5486 6.60321 26.5464 8.00624Z" fill="#A3713B"/>
<path d="M28.8067 5.38945C28.8067 5.38945 27.6821 4.24253 26.3904 5.44513C26.2234 5.60102 27.5373 6.56978 28.8067 5.38945Z" fill="#A3713B"/>
<path d="M10.634 29.1519C10.634 29.1519 12.0259 29.9425 11.2019 31.5014C11.0906 31.7129 9.82114 30.6885 10.634 29.1519Z" fill="#A3713B"/>
<path d="M8.74121 32.047C8.74121 32.047 10.0106 33.0269 11.1241 31.6796C11.2689 31.5014 9.84359 30.7219 8.74121 32.047Z" fill="#A3713B"/>
<path d="M25.1544 6.95949C25.1544 6.95949 23.7625 6.16889 24.5865 4.60997C24.6978 4.3984 25.9672 5.42284 25.1544 6.95949Z" fill="#A3713B"/>
<path d="M27.0587 4.07549C27.0587 4.07549 25.7892 3.0956 24.6757 4.44295C24.531 4.62111 25.9563 5.40058 27.0587 4.07549Z" fill="#A3713B"/>
<path d="M12.1483 30.0093C12.1483 30.0093 13.6293 30.6106 13.0169 32.2586C12.9389 32.4813 11.547 31.6239 12.1483 30.0093Z" fill="#A3713B"/>
<path d="M10.645 33.1271C10.645 33.1271 12.0258 33.94 12.9611 32.4479C13.0836 32.2475 11.5692 31.6573 10.645 33.1271Z" fill="#A3713B"/>
<path d="M23.6512 6.11321C23.6512 6.11321 22.1703 5.51191 22.7827 3.8639C22.8606 3.6412 24.2525 4.49861 23.6512 6.11321Z" fill="#A3713B"/>
<path d="M25.1547 2.99536C25.1547 2.99536 23.7739 2.18249 22.8385 3.67461C22.7161 3.87504 24.2304 4.4652 25.1547 2.99536Z" fill="#A3713B"/>
<path d="M13.7631 30.6551C13.7631 30.6551 15.3109 31.056 14.9211 32.7708C14.8655 33.0046 13.3734 32.3365 13.7631 30.6551Z" fill="#A3713B"/>
<path d="M12.6719 33.94C12.6719 33.94 14.1529 34.5636 14.8766 32.9712C14.9769 32.7597 13.3845 32.3699 12.6719 33.94Z" fill="#A3713B"/>
<path d="M22.0364 5.4562C22.0364 5.4562 20.4886 5.05533 20.8784 3.34052C20.934 3.10668 22.4262 3.77479 22.0364 5.4562Z" fill="#A3713B"/>
<path d="M23.1277 2.18249C23.1277 2.18249 21.6468 1.55892 20.923 3.15125C20.8228 3.36282 22.4151 3.75255 23.1277 2.18249Z" fill="#A3713B"/>
<path d="M15.4333 31.0894C15.4333 31.0894 17.0257 31.2898 16.8586 33.0381C16.8364 33.2719 15.2663 32.8154 15.4333 31.0894Z" fill="#A3713B"/>
<path d="M14.7876 34.4857C14.7876 34.4857 16.3354 34.9088 16.8476 33.2274C16.9144 33.0047 15.2998 32.8265 14.7876 34.4857Z" fill="#A3713B"/>
<path d="M20.3551 5.0331C20.3551 5.0331 18.7627 4.83266 18.9298 3.08444C18.952 2.8506 20.5221 3.30714 20.3551 5.0331Z" fill="#A3713B"/>
<path d="M21.0122 1.62574C21.0122 1.62574 19.4644 1.2026 18.9522 2.88401C18.8854 3.10672 20.5 3.28488 21.0122 1.62574Z" fill="#A3713B"/>
</g>
<path d="M17.9944 36C8.073 36 0 27.927 0 17.9944C0 8.06186 8.073 0 17.9944 0C27.9159 0 35.9889 8.073 35.9889 17.9944C35.9889 27.9159 27.9159 35.9889 17.9944 35.9889V36ZM17.9944 0.746056C8.485 0.746056 0.746056 8.485 0.746056 17.9944C0.746056 27.5039 8.485 35.2539 18.0056 35.2539C27.5261 35.2539 35.2651 27.515 35.2651 17.9944C35.2651 8.47386 27.515 0.746056 17.9944 0.746056Z" fill="url(#paint1_linear_1394_7267)"/>
<path d="M17.9943 30.8667C25.1035 30.8667 30.8666 25.1036 30.8666 17.9944C30.8666 10.8853 25.1035 5.12219 17.9943 5.12219C10.8852 5.12219 5.12207 10.8853 5.12207 17.9944C5.12207 25.1036 10.8852 30.8667 17.9943 30.8667Z" fill="url(#paint2_angular_1394_7267)"/>
<path d="M17.9943 5.86825C24.6754 5.86825 30.1205 11.3133 30.1205 17.9944C30.1205 24.6755 24.6754 30.1206 17.9943 30.1206C11.3132 30.1206 5.86813 24.6755 5.86813 17.9944C5.86813 11.3133 11.3132 5.86825 17.9943 5.86825ZM17.9943 5.12219C10.8901 5.12219 5.12207 10.8791 5.12207 17.9944C5.12207 25.1098 10.879 30.8667 17.9943 30.8667C25.1097 30.8667 30.8666 25.1098 30.8666 17.9944C30.8666 10.8791 25.1097 5.12219 17.9943 5.12219Z" fill="url(#paint3_angular_1394_7267)"/>
<path d="M17.9941 31.2342C10.6894 31.2342 4.75439 25.2991 4.75439 17.9945C4.75439 10.6898 10.7006 4.75476 17.9941 4.75476C25.2876 4.75476 31.2338 10.6898 31.2338 17.9945C31.2338 25.2991 25.2988 31.2342 17.9941 31.2342ZM17.9941 5.50082C11.1014 5.50082 5.50045 11.1018 5.50045 17.9945C5.50045 24.8871 11.1014 30.4881 17.9941 30.4881C24.8868 30.4881 30.4878 24.8871 30.4878 17.9945C30.4878 11.1018 24.8868 5.50082 17.9941 5.50082Z" fill="url(#paint4_linear_1394_7267)"/>
<g style="mix-blend-mode:multiply" opacity="0.4">
<path d="M18.1614 26.6688L17.7939 27.3925L16.9922 27.515L17.5712 28.0829L17.4376 28.8847L18.1614 28.5061L18.874 28.8847L18.7404 28.0829L19.3194 27.515L18.5177 27.3925L18.1614 26.6688Z" fill="#A3713B"/>
</g>
<g style="mix-blend-mode:multiply" opacity="0.4">
<path d="M14.4645 26.6688L14.2418 27.1142L13.7407 27.1921L14.1082 27.5373L14.0191 28.0384L14.4645 27.8045L14.9099 28.0384L14.8208 27.5373L15.1883 27.1921L14.6872 27.1142L14.4645 26.6688Z" fill="#A3713B"/>
</g>
<g style="mix-blend-mode:multiply" opacity="0.4">
<path d="M21.6911 26.6688L21.4684 27.1142L20.9673 27.1921L21.3347 27.5373L21.2457 28.0384L21.6911 27.8045L22.1365 28.0384L22.0474 27.5373L22.4149 27.1921L21.9138 27.1142L21.6911 26.6688Z" fill="#A3713B"/>
</g>
<g style="mix-blend-mode:multiply" opacity="0.4">
<path d="M18.1614 6.82587L17.7939 7.54965L16.9922 7.67214L17.5712 8.24003L17.4376 9.04176L18.1614 8.66317L18.874 9.04176L18.7404 8.24003L19.3194 7.67214L18.5177 7.54965L18.1614 6.82587Z" fill="#A3713B"/>
</g>
<g style="mix-blend-mode:multiply" opacity="0.4">
<path d="M14.5422 7.87256L14.3195 8.3291L13.8296 8.39591L14.1859 8.75224L14.0968 9.24218L14.5422 9.00835L14.9876 9.24218L14.9097 8.75224L15.266 8.39591L14.7649 8.3291L14.5422 7.87256Z" fill="#A3713B"/>
</g>
<g style="mix-blend-mode:multiply" opacity="0.4">
<path d="M21.7692 7.87256L21.5465 8.3291L21.0454 8.39591L21.4129 8.75224L21.3238 9.24218L21.7692 9.00835L22.2146 9.24218L22.1255 8.75224L22.493 8.39591L21.9919 8.3291L21.7692 7.87256Z" fill="#A3713B"/>
</g>
<g filter="url(#filter0_d_1394_7267)">
<path d="M12.8042 17.9956H14.2202V19.8462C14.033 19.908 13.8385 19.9577 13.6367 19.9951C13.4349 20.0309 13.2062 20.0488 12.9507 20.0488C12.5959 20.0488 12.2948 19.9788 12.0474 19.8389C11.8 19.6989 11.612 19.4922 11.4834 19.2188C11.3548 18.9453 11.2905 18.6092 11.2905 18.2104C11.2905 17.8361 11.3621 17.5122 11.5054 17.2388C11.6502 16.9653 11.861 16.7537 12.1377 16.604C12.416 16.4543 12.7554 16.3794 13.1558 16.3794C13.3446 16.3794 13.5309 16.3997 13.7148 16.4404C13.8988 16.4811 14.0656 16.534 14.2153 16.5991L13.9639 17.2046C13.8548 17.1493 13.7303 17.1029 13.5903 17.0654C13.4504 17.028 13.3039 17.0093 13.1509 17.0093C12.9312 17.0093 12.7399 17.0597 12.5771 17.1606C12.416 17.2616 12.2907 17.4032 12.2012 17.5854C12.1133 17.7661 12.0693 17.9793 12.0693 18.2251C12.0693 18.4578 12.1011 18.6646 12.1646 18.8452C12.228 19.0243 12.3281 19.165 12.4648 19.2676C12.6016 19.3685 12.7798 19.4189 12.9995 19.4189C13.1069 19.4189 13.1973 19.4141 13.2705 19.4043C13.3454 19.3929 13.4154 19.3815 13.4805 19.3701V18.6255H12.8042V17.9956ZM18.312 18.2104C18.312 18.4855 18.2778 18.7362 18.2095 18.9624C18.1411 19.187 18.0369 19.3807 17.897 19.5435C17.7586 19.7062 17.5828 19.8315 17.3696 19.9194C17.1564 20.0057 16.9041 20.0488 16.6128 20.0488C16.3215 20.0488 16.0692 20.0057 15.856 19.9194C15.6427 19.8315 15.4661 19.7062 15.3262 19.5435C15.1878 19.3807 15.0845 19.1862 15.0161 18.96C14.9478 18.7337 14.9136 18.4823 14.9136 18.2056C14.9136 17.8361 14.9738 17.5146 15.0942 17.2412C15.2163 16.9661 15.4035 16.7529 15.6558 16.6016C15.908 16.4502 16.2287 16.3745 16.6177 16.3745C17.005 16.3745 17.3232 16.4502 17.5723 16.6016C17.8229 16.7529 18.0085 16.9661 18.1289 17.2412C18.251 17.5163 18.312 17.8394 18.312 18.2104ZM15.707 18.2104C15.707 18.4595 15.738 18.6743 15.7998 18.855C15.8633 19.034 15.9618 19.1724 16.0952 19.27C16.2287 19.366 16.4012 19.4141 16.6128 19.4141C16.8276 19.4141 17.0018 19.366 17.1353 19.27C17.2687 19.1724 17.3656 19.034 17.4258 18.855C17.4876 18.6743 17.5186 18.4595 17.5186 18.2104C17.5186 17.8361 17.4486 17.5415 17.3086 17.3267C17.1686 17.1118 16.9383 17.0044 16.6177 17.0044C16.4045 17.0044 16.2303 17.0532 16.0952 17.1509C15.9618 17.2469 15.8633 17.3853 15.7998 17.5659C15.738 17.745 15.707 17.9598 15.707 18.2104ZM19.0518 20V16.4307H19.8086V19.375H21.2563V20H19.0518ZM24.8403 18.1812C24.8403 18.5832 24.763 18.9193 24.6084 19.1895C24.4554 19.458 24.2332 19.6606 23.9419 19.7974C23.6506 19.9325 23.2998 20 22.8896 20H21.8789V16.4307H22.9995C23.3739 16.4307 23.6986 16.4974 23.9736 16.6309C24.2487 16.7627 24.4619 16.9588 24.6133 17.2192C24.7646 17.478 24.8403 17.7987 24.8403 18.1812ZM24.0542 18.2007C24.0542 17.937 24.0151 17.7205 23.937 17.5513C23.8605 17.3804 23.7466 17.2542 23.5952 17.1729C23.4455 17.0915 23.2599 17.0508 23.0386 17.0508H22.6357V19.375H22.9604C23.3299 19.375 23.6042 19.2765 23.7832 19.0796C23.9639 18.8826 24.0542 18.5897 24.0542 18.2007Z" fill="white"/>
</g>
</g>
<defs>
<filter id="filter0_d_1394_7267" x="11.2905" y="16.3745" width="13.5498" height="3.87432" filterUnits="userSpaceOnUse" color-interpolation-filters="sRGB">
<feFlood flood-opacity="0" result="BackgroundImageFix"/>
<feColorMatrix in="SourceAlpha" type="matrix" values="0 0 0 0 0 0 0 0 0 0 0 0 0 0 0 0 0 0 127 0" result="hardAlpha"/>
<feOffset dy="0.2"/>
<feComposite in2="hardAlpha" operator="out"/>
<feColorMatrix type="matrix" values="0 0 0 0 0.243137 0 0 0 0 0.243137 0 0 0 0 0.243137 0 0 0 1 0"/>
<feBlend mode="normal" in2="BackgroundImageFix" result="effect1_dropShadow_1394_7267"/>
<feBlend mode="normal" in="SourceGraphic" in2="effect1_dropShadow_1394_7267" result="shape"/>
</filter>
<linearGradient id="paint0_linear_1394_7267" x1="17.9823" y1="35.249" x2="17.9823" y2="0.741104" gradientUnits="userSpaceOnUse">
<stop stop-color="#A3713B"/>
<stop offset="0.16" stop-color="#FDF496"/>
<stop offset="0.22" stop-color="#FFF78F"/>
<stop offset="0.46" stop-color="#C29C57"/>
<stop offset="0.57" stop-color="#F5E78A"/>
<stop offset="0.67" stop-color="#FEF593"/>
<stop offset="0.72" stop-color="#EBD983"/>
<stop offset="0.84" stop-color="#CFB266"/>
<stop offset="1" stop-color="#A3713B"/>
</linearGradient>
<linearGradient id="paint1_linear_1394_7267" x1="0" y1="17.9944" x2="36" y2="17.9944" gradientUnits="userSpaceOnUse">
<stop stop-color="#D8B56D"/>
<stop offset="0.1" stop-color="#FAE397"/>
<stop offset="0.24" stop-color="#E4CF76"/>
<stop offset="0.37" stop-color="#AC8953"/>
<stop offset="0.62" stop-color="#8D6E47"/>
<stop offset="0.81" stop-color="#D8B56D"/>
<stop offset="0.95" stop-color="#C1A360"/>
</linearGradient>
<radialGradient id="paint2_angular_1394_7267" cx="0" cy="0" r="1" gradientUnits="userSpaceOnUse" gradientTransform="translate(17.9999 18) rotate(135) scale(12.8736)">
<stop stop-color="#A3713B"/>
<stop offset="0.22" stop-color="#FDF496"/>
<stop offset="0.28" stop-color="#FFF78F"/>
<stop offset="0.48" stop-color="#C29C57"/>
<stop offset="0.74" stop-color="#CFB266"/>
<stop offset="1" stop-color="#A3713B"/>
</radialGradient>
<radialGradient id="paint3_angular_1394_7267" cx="0" cy="0" r="1" gradientUnits="userSpaceOnUse" gradientTransform="translate(17.9999 18) rotate(-150.031) scale(12.8731)">
<stop stop-color="#A3713B"/>
<stop offset="0.22" stop-color="#FDF496"/>
<stop offset="0.28" stop-color="#FFF78F"/>
<stop offset="0.48" stop-color="#C29C57"/>
<stop offset="0.74" stop-color="#CFB266"/>
<stop offset="1" stop-color="#A3713B"/>
</radialGradient>
<linearGradient id="paint4_linear_1394_7267" x1="4.75439" y1="17.9945" x2="31.2338" y2="17.9945" gradientUnits="userSpaceOnUse">
<stop stop-color="#D8B56D"/>
<stop offset="0.1" stop-color="#FAE397"/>
<stop offset="0.16" stop-color="#FFFFDA"/>
<stop offset="0.21" stop-color="#FFF78F"/>
<stop offset="0.33" stop-color="#E4CF76"/>
<stop offset="0.48" stop-color="#AC8953"/>
<stop offset="0.62" stop-color="#8D6E47"/>
<stop offset="0.73" stop-color="#D8B56D"/>
<stop offset="0.84" stop-color="#FCEB94"/>
<stop offset="0.88" stop-color="#FFFFD1"/>
<stop offset="0.95" stop-color="#C1A360"/>
</linearGradient>
<clipPath id="clip0_1394_7267">
<rect width="36" height="36" fill="white"/>
</clipPath>
</defs>
</svg>
